<svg xmlns="http://www.w3.org/2000/svg" xmlns:xlink="http://www.w3.org/1999/xlink" x="0px" y="0px" viewBox="0 0 161.6 36" style="enable-background:new 0 0 161.6 36;" xml:space="preserve"><style type="text/css">	.leno{fill:#AE845F;}	.pcd{fill:#222222;}</style><g>	<g>		<path class="leno" d="M111.7,10C102.1,10,94,18.3,94,28c0,2.8,0.7,5.6,1.9,8h4.1c-0.8-1.7-1.3-3.5-1.7-5.5c-1-5.4,0-10.6,2.6-14.3   c1.9-2.7,4.6-4.4,7.8-5c7.9-1.3,14.9,4.6,16.6,14c0.7,3.8,0.4,7.6-0.8,10.8h3c1.3-2.4,2-5.2,2-8C129.5,18.4,121.2,10,111.7,10z"></path>		<path class="leno" d="M123.8,0c-0.3,0.7-0.7,1.3-1.1,1.9c-2,2.8-4.7,4.5-7.9,5.1c-0.7,0.1-1.4,0.2-2.1,0.2c-4.7,0-8.9-2.7-11.6-7.1   h-4c3.2,4.9,8.7,8.2,14.7,8.2s11.4-3.3,14.7-8.2L123.8,0L123.8,0z"></path>	</g>	<path class="pcd" d="M21.9,35.1c-0.3,0.3-0.6,0.7-0.8,0.9H0V2.7V1.2h1.7l0,0h2.4V35L21.9,35.1L21.9,35.1z"></path>	<path class="pcd" d="M31.4,35h18.8l-0.8,1H27.3V1.3h23.1l-0.9,0.9H31.4v13.4H50l-0.7,0.9H31.4V35z"></path>	<path class="pcd" d="M86.6,1.3V36h-2.4L57.8,7.6V36h-0.9V1.3h1.4l27.4,29.3V1.3H86.6z"></path>	<path class="pcd" d="M161.6,27.3c0,6.4-6.8,8.7-13.2,8.7c-6.7,0-11.1-2.7-12.7-7.5l2.2-0.4c1,3.4,3.7,7.1,11.4,7.1  c5,0,8.8-3.1,8.8-7.3c0-4.3-4.3-5.8-10.3-8l-1.5-0.5c-5.2-1.9-11.2-4-11.2-10c0-3.6,3.9-8.9,12.3-8.9c5.5,0,9.9,2,12.6,5.7l-2,0.7  c-2.6-3.8-6.3-5.8-10.6-5.8s-6.5,1.6-7.6,3c-1.4,1.7-1.7,3.9-1.4,5.2c0.8,3.5,4.1,4.7,9.1,6.4c0.6,0.2,1.3,0.5,2,0.7  C154.8,18.2,161.6,21.4,161.6,27.3z"></path></g></svg>